<svg id="Layer_1" data-name="Layer 1" xmlns="http://www.w3.org/2000/svg" viewBox="0 0 39.4 41.05"><defs><style>.cls-2{fill:none}.cls-3{fill:#454546}</style></defs><circle cx="18" cy="23.05" r="16.5" fill="#fff"/><path class="cls-2" d="M25.14 13.22c-.11-.54-.29-1-.44-1.51l-.42-1.44a14.73 14.73 0 00-8 26.53l1.91-1.8a.1.1 0 01.14 0h.11a10.91 10.91 0 006.2 2 .28.28 0 01.28.28c.23.77.46 1.55.7 2.32a14.7 14.7 0 0012.46-21L37 17.54l-2.56 2.56a2 2 0 01-2.83 0l-3.39-3.39a2 2 0 01-.16-2.63 20.51 20.51 0 00-2.69-.6.44.44 0 01-.23-.26zm-3.8 11.1l-4.52 4.08a.29.29 0 01-.41 0 12.78 12.78 0 01-3.75-3.4.77.77 0 01-.13-.41 12 12 0 011.64-6 .7.7 0 01.29-.16 10.81 10.81 0 014-.77 6.4 6.4 0 011.21.08.39.39 0 01.36.34c.44 2 .93 3.94 1.41 5.91a.34.34 0 01-.1.33zm6.94 1.9l4.66-4.16a.33.33 0 01.46 0 14 14 0 013.94 3.14 1.1 1.1 0 01.25.67A10.77 10.77 0 0135.67 32a1.44 1.44 0 01-.62.49 11.86 11.86 0 01-5.14.44.31.31 0 01-.21-.18c-.54-2-1.08-4-1.64-5.94a.46.46 0 01.22-.59z" transform="translate(-7 -1.95)"/><path class="cls-2" d="M25.14 13.22c-.11-.54-.29-1-.44-1.51l-.42-1.44a14.73 14.73 0 00-8 26.53l1.91-1.8a.1.1 0 01.14 0h.11a10.91 10.91 0 006.2 2 .28.28 0 01.28.28c.23.77.46 1.55.7 2.32a14.7 14.7 0 0012.46-21L37 17.54l-2.56 2.56a2 2 0 01-2.83 0l-3.39-3.39a2 2 0 01-.16-2.63 20.51 20.51 0 00-2.69-.6.44.44 0 01-.23-.26z" transform="translate(-7 -1.95)"/><path class="cls-3" d="M39.59 20.11l-1.51-1.51a14.7 14.7 0 01-12.46 21c-.24-.77-.47-1.55-.7-2.32a.28.28 0 00-.28-.28 10.91 10.91 0 01-6.2-2h-.11a.1.1 0 00-.14 0l-1.91 1.8a14.73 14.73 0 018-26.53l.42 1.44c.15.51.33 1 .44 1.51a.44.44 0 00.26.26 20.51 20.51 0 012.69.6l-1-7a18.06 18.06 0 1015.24 13.1 2 2 0 01-2.74-.07z" transform="translate(-7 -1.95)"/><path class="cls-3" d="M43.25 11.32l2.56-2.56a2 2 0 000-2.83l-3.39-3.39a2 2 0 00-2.83 0L37 5.1l-2.53-2.56a2 2 0 00-2.83 0l-4.58 4.59 1 7a2 2 0 00.16 2.63l3.39 3.39a2 2 0 002.83 0L37 17.54l1.05 1.05 1.51 1.51a2 2 0 002.74.08l.09-.08 3.39-3.39a2 2 0 000-2.83zm-23.58 6.42a6.4 6.4 0 00-1.21-.08 10.81 10.81 0 00-4 .77.7.7 0 00-.29.16 12 12 0 00-1.64 6 .77.77 0 00.13.41 12.78 12.78 0 003.74 3.4.29.29 0 00.41 0l4.52-4.08a.34.34 0 00.1-.33c-.48-2-1-3.91-1.41-5.91a.39.39 0 00-.35-.34zm10.05 15.01a.31.31 0 00.21.18 11.86 11.86 0 005.14-.44 1.44 1.44 0 00.62-.49 10.77 10.77 0 001.92-6.13 1.1 1.1 0 00-.25-.67 14 14 0 00-3.94-3.14.33.33 0 00-.46 0l-4.66 4.16a.46.46 0 00-.2.59c.54 1.94 1.08 3.94 1.62 5.94z" transform="translate(-7 -1.95)"/><path fill="#ef5350" d="M36.49 5.21l-2.3-2.31-4.16 4.17-4.16-4.17-2.3 2.31 4.16 4.16-4.16 4.16 2.3 2.3 4.16-4.16 4.16 4.16 2.3-2.3-4.16-4.16 4.16-4.16z"/></svg>