<svg width="35" height="21" viewBox="0 0 35 21" fill="none" xmlns="http://www.w3.org/2000/svg">
    <circle cx="17.5" cy="14.5" r="6.5" fill="#EEEEEE" />
    <path fill-rule="evenodd" clip-rule="evenodd" d="M17.5 8C13.9101 8 11 10.9101 11 14.5C11 18.0899 13.9101 21 17.5 21C21.0899 21 24 18.0899 24 14.5C24 12.7761 23.3152 11.1228 22.0962 9.90381C20.8772 8.68482 19.2239 8 17.5 8ZM22.3089 17.2806C22.2449 17.2091 22.147 17.1782 22.0535 17.1999L20.3569 17.6051C20.2772 17.6239 20.2111 17.6793 20.1786 17.7544L19.4849 19.3545C19.4451 19.4465 19.4617 19.5532 19.5276 19.6287L19.8492 19.9976C18.3482 20.641 16.649 20.6405 15.1484 19.9964L15.4712 19.6297C15.5378 19.5542 15.5548 19.447 15.5148 19.3545L14.8212 17.7544C14.7886 17.6794 14.7225 17.6241 14.6429 17.6051L12.9468 17.1999C12.853 17.1779 12.7546 17.2094 12.6909 17.2816L12.4026 17.6107C11.8262 16.6755 11.5206 15.5986 11.52 14.5C11.52 14.4136 11.5258 14.3287 11.5316 14.2437C11.5338 14.2118 11.536 14.1799 11.5378 14.1479L11.8799 14.2727C11.9084 14.2831 11.9384 14.2884 11.9688 14.2883C12.0352 14.2882 12.0992 14.2627 12.1475 14.2172L13.414 13.018C13.4734 12.9616 13.503 12.8806 13.4937 12.7991L13.2941 11.0665C13.2825 10.9688 13.2169 10.8859 13.1245 10.8522L12.8476 10.7513C13.5816 9.84019 14.5662 9.16375 15.68 8.80538V9.06283C15.6801 9.16129 15.7357 9.25127 15.8237 9.29542L17.3837 10.0754C17.4569 10.112 17.5431 10.112 17.6163 10.0754L19.1763 9.29542C19.2643 9.25126 19.3199 9.16128 19.32 9.06283V8.80538C20.4338 9.16378 21.4184 9.84021 22.1524 10.7513L21.8751 10.8524C21.7824 10.886 21.7167 10.9692 21.7055 11.0672L21.5065 12.7996C21.4973 12.8809 21.5268 12.9617 21.5862 13.018L22.8527 14.217C22.901 14.2625 22.965 14.288 23.0314 14.288C23.0618 14.2881 23.0918 14.2829 23.1203 14.2724L23.4622 14.1476C23.464 14.1797 23.4662 14.2116 23.4684 14.2436C23.4742 14.3285 23.48 14.4134 23.48 14.4998C23.4794 15.5978 23.1742 16.6742 22.5984 17.6091L22.3089 17.2806ZM17.3378 12.2156C17.4332 12.1414 17.5667 12.1414 17.6621 12.2156L19.7383 13.8289C19.8224 13.8943 19.859 14.0039 19.831 14.1067L19.138 16.6455C19.1066 16.7604 19.0023 16.84 18.8832 16.84H16.1171C15.998 16.84 15.8936 16.7604 15.8623 16.6455L15.1693 14.1067C15.1413 14.0039 15.1778 13.8943 15.262 13.8289L17.3378 12.2156Z" fill="#1D1D27" />
    <path d="M1.5 17V1H33.5V17" stroke="#EEEEEE" stroke-width="2" />
</svg>
