<?xml version="1.0" encoding="UTF-8" standalone="no"?>
<!-- Created with Inkscape (http://www.inkscape.org/) -->

<svg width="296.44803mm" height="210.04338mm" viewBox="0 0 296.44803 210.04338" version="1.1" id="svg5" inkscape:version="1.1 (c4e8f9e, 2021-05-24)" sodipodi:docname="drawing.svg" xmlns:inkscape="http://www.inkscape.org/namespaces/inkscape" xmlns:sodipodi="http://sodipodi.sourceforge.net/DTD/sodipodi-0.dtd" xmlns="http://www.w3.org/2000/svg" xmlns:svg="http://www.w3.org/2000/svg">
   <sodipodi:namedview id="namedview7" pagecolor="#ffffff" bordercolor="#666666" borderopacity="1.0" inkscape:pageshadow="2" inkscape:pageopacity="0.0" inkscape:pagecheckerboard="0" inkscape:document-units="mm" showgrid="false" inkscape:zoom="0.77771465" inkscape:cx="174.22843" inkscape:cy="410.81906" inkscape:window-width="1312" inkscape:window-height="1081" inkscape:window-x="240" inkscape:window-y="84" inkscape:window-maximized="0" inkscape:current-layer="layer1" />
   <defs id="defs2" />
   <g inkscape:label="Layer 1" inkscape:groupmode="layer" id="layer1" transform="translate(42.930196,-43.818511)">
      <g inkscape:label="Warstwa 1" id="layer1-7" transform="matrix(0,0.30006198,-0.27966794,0,253.51782,43.818511)">
         <rect style="fill:transparent;fill-opacity:1;fill-rule:evenodd;stroke:none;stroke-width:10;stroke-linecap:butt;stroke-linejoin:miter;stroke-miterlimit:4;stroke-dasharray:none;stroke-opacity:1" id="rect1872" width="700" height="1060" x="0" y="0" />
         <g id="g3772">
            <path sodipodi:nodetypes="cccccc" id="path3770" d="m 423.45109,869.14709 h 2.07595 C 408.75686,845.50978 381.16316,830.08458 349.99579,830.0846 v -10e-6 c -31.16704,10e-6 -58.72977,15.42561 -75.5,39.06251 h 2.04614" style="fill:none;fill-opacity:1;fill-rule:evenodd;stroke:#ffffff;stroke-width:5.07434;stroke-linecap:butt;stroke-linejoin:miter;stroke-miterlimit:4;stroke-dasharray:none;stroke-opacity:1" />
            <path id="path3747" d="M 152.93677,1029.99 H 150.468 v -160.86396 0 H 549.53198 V 1029.99 h -2.53126" style="fill:none;fill-opacity:1;fill-rule:evenodd;stroke:#ffffff;stroke-width:5;stroke-linecap:butt;stroke-linejoin:miter;stroke-miterlimit:4;stroke-opacity:1" />
            <ellipse transform="matrix(0.887251,0,0,0.955501,-23.57158,114.8921)" id="path10770" style="fill:#ffffff;fill-opacity:1;fill-rule:evenodd;stroke:none;stroke-width:5;stroke-linecap:butt;stroke-linejoin:miter;stroke-miterlimit:4;stroke-dasharray:none;stroke-opacity:1" cx="421.04385" cy="845.37323" rx="5.635386" ry="5.2328587" />
            <ellipse transform="matrix(1.064701,0,0,1.146601,-98.28581,-439.3058)" id="path11672" style="fill:#ffffff;fill-opacity:1;fill-rule:evenodd;stroke:none;stroke-width:5;stroke-linecap:butt;stroke-linejoin:miter;stroke-miterlimit:4;stroke-dasharray:none;stroke-opacity:1" cx="421.04385" cy="845.37323" rx="5.635386" ry="5.2328587" />
            <ellipse transform="matrix(0.887251,0,0,0.955501,-23.57158,-670.1079)" id="path11674" style="fill:#ffffff;fill-opacity:1;fill-rule:evenodd;stroke:none;stroke-width:5;stroke-linecap:butt;stroke-linejoin:miter;stroke-miterlimit:4;stroke-dasharray:none;stroke-opacity:1" cx="421.04385" cy="845.37323" rx="5.635386" ry="5.2328587" />
            <path id="path1911" d="m 30.569095,1015.9792 c 6.960382,-0.1775 12.749887,5.4682 12.923003,12.6019 0.0027,0.1127 0.0039,0.2081 0.0039,0.3209" style="fill:none;fill-opacity:1;fill-rule:evenodd;stroke:#ffffff;stroke-width:5;stroke-linecap:butt;stroke-linejoin:miter;stroke-miterlimit:4;stroke-opacity:1" />
            <path id="path3742" d="m 262.445,1030 h -2.49978 v -51.90955 0 H 440.05478 V 1030 h -2.49979" style="fill:none;fill-opacity:1;fill-rule:evenodd;stroke:#ffffff;stroke-width:5;stroke-linecap:butt;stroke-linejoin:miter;stroke-miterlimit:4;stroke-opacity:1" />
            <path id="path1905" d="m 442.53661,530.00004 c 0,51.08021 -41.4564,92.53662 -92.53661,92.53662 -51.0802,0 -92.53659,-41.45641 -92.53659,-92.53662 0,-51.0802 41.45639,-92.53662 92.53659,-92.53662 51.08021,0 92.53661,41.45642 92.53661,92.53662 z" style="fill:none;fill-opacity:1;fill-rule:evenodd;stroke:#ffffff;stroke-width:5;stroke-linecap:butt;stroke-linejoin:miter;stroke-miterlimit:4;stroke-opacity:1" />
            <path id="path1903" d="m 30.35101,529.99999 c 639.29798,0 639.29798,0 639.29798,0" style="fill:none;fill-opacity:1;fill-rule:evenodd;stroke:#ffffff;stroke-width:5;stroke-linecap:butt;stroke-linejoin:miter;stroke-miterlimit:4;stroke-opacity:1" />
            <path id="path2803" d="m 437.58625,30.010439 h 2.46853 V 81.92 H 259.94522 v -51.909561 0 h 2.53103" style="fill:none;fill-opacity:1;fill-rule:evenodd;stroke:#ffffff;stroke-width:5;stroke-linecap:butt;stroke-linejoin:miter;stroke-miterlimit:4;stroke-opacity:1" />
            <path id="path1899" d="M 30.000002,29.999991 H 670 V 1030 H 30.000002 Z" style="fill:none;fill-opacity:1;fill-rule:evenodd;stroke:#ffffff;stroke-width:5;stroke-linecap:butt;stroke-linejoin:miter;stroke-miterlimit:4;stroke-opacity:1" />
            <path id="path2817" d="m 547.00071,30.007021 h 2.53127 V 190.871 H 150.468 v -160.863979 0 h 2.50001" style="fill:none;fill-opacity:1;fill-rule:evenodd;stroke:#ffffff;stroke-width:5;stroke-linecap:butt;stroke-linejoin:miter;stroke-miterlimit:4;stroke-opacity:1" />
            <path sodipodi:nodetypes="cccscc" id="path2832" d="m 276.28681,190.92095 -2.04102,0.0116 v 0 c 16.74448,23.84293 44.4228,39.43749 75.75,39.4375 31.32882,0 59.03703,-15.59248 75.78125,-39.4375 h -2.03845" style="fill:none;fill-opacity:1;fill-rule:evenodd;stroke:#ffffff;stroke-width:5;stroke-linecap:butt;stroke-linejoin:miter;stroke-miterlimit:4;stroke-opacity:1" />
            <path id="path1893" d="m 668.56428,43.790848 c -6.96038,0.177427 -12.74988,-5.468238 -12.923,-12.601934 -0.003,-0.112738 -0.004,-0.208109 -0.004,-0.320885" style="fill:none;fill-opacity:1;fill-rule:evenodd;stroke:#ffffff;stroke-width:5;stroke-linecap:butt;stroke-linejoin:miter;stroke-miterlimit:4;stroke-opacity:1" />
            <path id="path1891" d="m 44.297238,30.990225 c 0.177427,6.960382 -5.468238,12.749887 -12.601934,12.923003 -0.112738,0.0027 -0.208109,0.0039 -0.320885,0.0039" style="fill:none;fill-opacity:1;fill-rule:evenodd;stroke:#ffffff;stroke-width:5;stroke-linecap:butt;stroke-linejoin:miter;stroke-miterlimit:4;stroke-opacity:1" />
            <path id="path13489" d="m 655.29596,1028.4995 c -0.17743,-6.9604 5.46824,-12.7499 12.60194,-12.923 0.11273,0 0.20811,0 0.32088,0" style="fill:none;fill-opacity:1;fill-rule:evenodd;stroke:#ffffff;stroke-width:5;stroke-linecap:butt;stroke-linejoin:miter;stroke-miterlimit:4;stroke-opacity:1" />
         </g>
      </g>
   </g>
</svg>
