<svg height="48" viewBox="0 0 48 48" width="48" xmlns="http://www.w3.org/2000/svg">
    <path d="M36 20.5v7l-8.016 1.503v-.007l-.018.246A8 8 0 1 1 20 20.5zm-16 1a7 7 0 1 0 0 14 7 7 0 0 0 0-14zm15 0H23.877l.026.015a8.002 8.002 0 0 1 4.063 6.243l.018.228L35 26.67zm-11.321-.105l.195.104-.162-.088zm-.134-.069l.134.069-.05-.026zm-.572-.256l.019.008a7.98 7.98 0 0 0-.02-.008zm-.325-.121l.069.024a7.92 7.92 0 0 0-.069-.024zm-.311-.102l.03.009zm-.627-.164l.059.013a7.95 7.95 0 0 0-.068-.015zm-.058-.012l.049.01.009.002zm-.658-.11l.134.018a8.006 8.006 0 0 0-.134-.018zm-.36-.036l.08.006a8.042 8.042 0 0 0-.08-.006zm-.314-.019l.087.004a8.073 8.073 0 0 0-.087-.004zM20 11.5a.5.5 0 0 1 .5.5v5a.5.5 0 1 1-1 0v-5a.5.5 0 0 1 .5-.5zm6.338 2.073a.5.5 0 0 1 .299.641l-1.026 2.82a.5.5 0 0 1-.94-.343l1.026-2.819a.5.5 0 0 1 .64-.299zm-12.678 0a.5.5 0 0 1 .64.3l1.027 2.818a.5.5 0 1 1-.94.342l-1.026-2.819a.5.5 0 0 1 .299-.64z" fill="#fff"></path>
</svg>